<svg xmlns="http://www.w3.org/2000/svg" width="48" height="48" viewBox="0 0 48 48" role="img" aria-labelledby="title desc">
  <title id="title">BookSwap logo</title>
  <desc id="desc">An open book with swap arrows.</desc>
  <rect width="48" height="48" rx="12" fill="#e8f5e9"/>
  <path d="M9 13.5c0-2 1.6-3.5 3.5-3.5H22c1.4 0 2.7.5 3.7 1.4V38c-1-.9-2.3-1.4-3.7-1.4h-9.5A3.5 3.5 0 0 1 9 33.1V13.5Z" fill="#2e7d32"/>
  <path d="M39 13.5c0-2-1.6-3.5-3.5-3.5H26c-1.4 0-2.7.5-3.7 1.4V38c1-.9 2.3-1.4 3.7-1.4h9.5a3.5 3.5 0 0 0 3.5-3.5V13.5Z" fill="#f4b400"/>
  <path d="M14 17h7.3M14 22h7.3M27 17h7M27 22h7" stroke="#fff" stroke-width="2" stroke-linecap="round"/>
  <path d="M16 29h14.5l-3-3M32 31H17.5l3 3" stroke="#fff" stroke-width="2.4" stroke-linecap="round" stroke-linejoin="round"/>
</svg>
